<svg xmlns="http://www.w3.org/2000/svg" xmlns:xlink="http://www.w3.org/1999/xlink" width="500" zoomAndPan="magnify" viewBox="0 0 375 374.999991" height="500" preserveAspectRatio="xMidYMid meet" version="1.0"><defs><g/><clipPath id="31f11187c4"><path d="M 37.5 37.5 L 337.5 37.5 L 337.5 337.5 L 37.5 337.5 Z M 37.5 37.5 " clip-rule="nonzero"/></clipPath><clipPath id="e6f0734c6d"><path d="M 187.5 37.5 C 104.65625 37.5 37.5 104.65625 37.5 187.5 C 37.5 270.34375 104.65625 337.5 187.5 337.5 C 270.34375 337.5 337.5 270.34375 337.5 187.5 C 337.5 104.65625 270.34375 37.5 187.5 37.5 Z M 187.5 37.5 " clip-rule="nonzero"/></clipPath><clipPath id="406989cc45"><path d="M 82.632812 82.632812 L 292.367188 82.632812 L 292.367188 292.367188 L 82.632812 292.367188 Z M 82.632812 82.632812 " clip-rule="nonzero"/></clipPath><clipPath id="b489b1f41d"><path d="M 187.5 82.632812 C 129.585938 82.632812 82.632812 129.585938 82.632812 187.5 C 82.632812 245.414062 129.585938 292.367188 187.5 292.367188 C 245.414062 292.367188 292.367188 245.414062 292.367188 187.5 C 292.367188 129.585938 245.414062 82.632812 187.5 82.632812 Z M 187.5 82.632812 " clip-rule="nonzero"/></clipPath><clipPath id="f09cc6833a"><path d="M 146 93.230469 L 229 93.230469 L 229 187.730469 L 146 187.730469 Z M 146 93.230469 " clip-rule="nonzero"/></clipPath><clipPath id="c4dfaa3195"><path d="M 20.453125 167.644531 L 354.605469 167.644531 L 354.605469 215.167969 L 20.453125 215.167969 Z M 20.453125 167.644531 " clip-rule="nonzero"/></clipPath><clipPath id="c2a5d069aa"><path d="M 27.953125 167.644531 L 347.046875 167.644531 C 351.1875 167.644531 354.546875 171.003906 354.546875 175.144531 L 354.546875 207.667969 C 354.546875 211.8125 351.1875 215.167969 347.046875 215.167969 L 27.953125 215.167969 C 23.8125 215.167969 20.453125 211.8125 20.453125 207.667969 L 20.453125 175.144531 C 20.453125 171.003906 23.8125 167.644531 27.953125 167.644531 Z M 27.953125 167.644531 " clip-rule="nonzero"/></clipPath><clipPath id="87c9be697b"><path d="M 166 239 L 171 239 L 171 265.433594 L 166 265.433594 Z M 166 239 " clip-rule="nonzero"/></clipPath><clipPath id="d84aba5d78"><path d="M 168 260 L 176 260 L 176 265.433594 L 168 265.433594 Z M 168 260 " clip-rule="nonzero"/></clipPath><clipPath id="4273077d07"><path d="M 159.855469 225.175781 L 176.632812 225.175781 L 176.632812 242 L 159.855469 242 Z M 159.855469 225.175781 " clip-rule="nonzero"/></clipPath><clipPath id="9c87262747"><path d="M 185 239 L 191 239 L 191 265.433594 L 185 265.433594 Z M 185 239 " clip-rule="nonzero"/></clipPath><clipPath id="9f6dbd96c7"><path d="M 187 260 L 195 260 L 195 265.433594 L 187 265.433594 Z M 187 260 " clip-rule="nonzero"/></clipPath><clipPath id="9f33aac0fa"><path d="M 179.210938 225.175781 L 195.984375 225.175781 L 195.984375 242 L 179.210938 242 Z M 179.210938 225.175781 " clip-rule="nonzero"/></clipPath><clipPath id="19aabc0e2e"><path d="M 204 239 L 210 239 L 210 265.433594 L 204 265.433594 Z M 204 239 " clip-rule="nonzero"/></clipPath><clipPath id="47656c4ef3"><path d="M 207 260 L 214 260 L 214 265.433594 L 207 265.433594 Z M 207 260 " clip-rule="nonzero"/></clipPath><clipPath id="8add37364f"><path d="M 198.566406 225.175781 L 215.339844 225.175781 L 215.339844 242 L 198.566406 242 Z M 198.566406 225.175781 " clip-rule="nonzero"/></clipPath></defs><g clip-path="url(#31f11187c4)"><g clip-path="url(#e6f0734c6d)"><path fill="#87ceeb" d="M 37.5 37.5 L 337.5 37.5 L 337.5 337.5 L 37.5 337.5 Z M 37.5 37.5 " fill-opacity="1" fill-rule="nonzero"/></g></g><g clip-path="url(#406989cc45)"><g clip-path="url(#b489b1f41d)"><path fill="#003366" d="M 82.632812 82.632812 L 292.367188 82.632812 L 292.367188 292.367188 L 82.632812 292.367188 Z M 82.632812 82.632812 " fill-opacity="1" fill-rule="nonzero"/></g></g><g clip-path="url(#f09cc6833a)"><path fill="#87ceeb" d="M 219.800781 182.050781 L 219.800781 100.765625 L 222.148438 100.765625 L 222.148438 93.230469 L 152.726562 93.230469 L 152.726562 100.765625 L 155.070312 100.765625 L 155.070312 182.171875 L 146.054688 182.171875 L 146.054688 187.484375 L 179.285156 187.484375 L 179.285156 160.308594 L 195.714844 160.308594 L 195.714844 187.484375 L 228.945312 187.484375 L 228.945312 182.171875 L 219.800781 182.171875 Z M 172.984375 152.402344 L 164.214844 152.402344 L 164.214844 143.632812 L 172.984375 143.632812 Z M 172.984375 133.503906 L 164.214844 133.503906 L 164.214844 124.730469 L 172.984375 124.730469 Z M 172.984375 114.601562 L 164.214844 114.601562 L 164.214844 105.707031 L 172.984375 105.707031 Z M 191.882812 152.402344 L 183.113281 152.402344 L 183.113281 143.632812 L 191.882812 143.632812 C 191.882812 143.632812 191.882812 152.402344 191.882812 152.402344 Z M 191.882812 133.503906 L 183.113281 133.503906 L 183.113281 124.730469 L 191.882812 124.730469 C 191.882812 124.730469 191.882812 133.503906 191.882812 133.503906 Z M 191.882812 114.601562 L 183.113281 114.601562 L 183.113281 105.707031 L 191.882812 105.707031 C 191.882812 105.707031 191.882812 114.601562 191.882812 114.601562 Z M 210.785156 152.402344 L 201.890625 152.402344 L 201.890625 143.632812 L 210.785156 143.632812 Z M 210.785156 133.503906 L 201.890625 133.503906 L 201.890625 124.730469 L 210.785156 124.730469 Z M 210.785156 114.601562 L 201.890625 114.601562 L 201.890625 105.707031 L 210.785156 105.707031 Z M 210.785156 114.601562 " fill-opacity="1" fill-rule="nonzero"/></g><g clip-path="url(#c4dfaa3195)"><g clip-path="url(#c2a5d069aa)"><path fill="#003366" d="M 20.453125 167.644531 L 354.605469 167.644531 L 354.605469 215.167969 L 20.453125 215.167969 Z M 20.453125 167.644531 " fill-opacity="1" fill-rule="nonzero"/></g></g><g clip-path="url(#87c9be697b)"><path fill="#87ceeb" d="M 166.035156 265.386719 L 166.035156 239.34375 L 170.769531 239.34375 L 170.769531 265.386719 Z M 166.035156 265.386719 " fill-opacity="1" fill-rule="evenodd"/></g><g clip-path="url(#d84aba5d78)"><path fill="#87ceeb" d="M 168.402344 265.386719 L 168.402344 260.652344 L 175.007812 260.652344 L 175.007812 265.386719 Z M 168.402344 265.386719 " fill-opacity="1" fill-rule="evenodd"/></g><path fill="#87ceeb" d="M 168.402344 258.285156 L 168.402344 253.546875 L 175.007812 253.546875 L 175.007812 258.285156 Z M 168.402344 258.285156 " fill-opacity="1" fill-rule="evenodd"/><g clip-path="url(#4273077d07)"><path fill="#87ceeb" d="M 164.570312 233.421875 C 164.570312 235.382812 166.164062 236.976562 168.125 236.976562 C 170.085938 236.976562 171.675781 235.382812 171.675781 233.421875 C 171.675781 231.460938 170.085938 229.871094 168.125 229.871094 C 166.164062 229.871094 164.570312 231.460938 164.570312 233.421875 Z M 168.125 241.710938 C 163.546875 241.710938 159.835938 238 159.835938 233.421875 C 159.835938 228.847656 163.546875 225.136719 168.125 225.136719 C 172.699219 225.136719 176.410156 228.847656 176.410156 233.421875 C 176.410156 238 172.699219 241.710938 168.125 241.710938 Z M 168.125 241.710938 " fill-opacity="1" fill-rule="evenodd"/></g><g clip-path="url(#9c87262747)"><path fill="#87ceeb" d="M 185.386719 265.386719 L 185.386719 239.34375 L 190.121094 239.34375 L 190.121094 265.386719 Z M 185.386719 265.386719 " fill-opacity="1" fill-rule="evenodd"/></g><g clip-path="url(#9f6dbd96c7)"><path fill="#87ceeb" d="M 187.753906 265.386719 L 187.753906 260.652344 L 194.363281 260.652344 L 194.363281 265.386719 Z M 187.753906 265.386719 " fill-opacity="1" fill-rule="evenodd"/></g><path fill="#87ceeb" d="M 187.753906 258.285156 L 187.753906 253.546875 L 194.363281 253.546875 L 194.363281 258.285156 Z M 187.753906 258.285156 " fill-opacity="1" fill-rule="evenodd"/><g clip-path="url(#9f33aac0fa)"><path fill="#87ceeb" d="M 183.925781 233.421875 C 183.925781 235.382812 185.515625 236.976562 187.476562 236.976562 C 189.4375 236.976562 191.027344 235.382812 191.027344 233.421875 C 191.027344 231.460938 189.4375 229.871094 187.476562 229.871094 C 185.515625 229.871094 183.925781 231.460938 183.925781 233.421875 Z M 187.476562 241.710938 C 182.902344 241.710938 179.191406 238 179.191406 233.421875 C 179.191406 228.847656 182.902344 225.136719 187.476562 225.136719 C 192.054688 225.136719 195.765625 228.847656 195.765625 233.421875 C 195.765625 238 192.054688 241.710938 187.476562 241.710938 Z M 187.476562 241.710938 " fill-opacity="1" fill-rule="evenodd"/></g><g clip-path="url(#19aabc0e2e)"><path fill="#87ceeb" d="M 204.742188 265.386719 L 204.742188 239.34375 L 209.476562 239.34375 L 209.476562 265.386719 Z M 204.742188 265.386719 " fill-opacity="1" fill-rule="evenodd"/></g><g clip-path="url(#47656c4ef3)"><path fill="#87ceeb" d="M 207.109375 265.386719 L 207.109375 260.652344 L 213.71875 260.652344 L 213.71875 265.386719 Z M 207.109375 265.386719 " fill-opacity="1" fill-rule="evenodd"/></g><path fill="#87ceeb" d="M 207.109375 258.285156 L 207.109375 253.546875 L 213.71875 253.546875 L 213.71875 258.285156 Z M 207.109375 258.285156 " fill-opacity="1" fill-rule="evenodd"/><g clip-path="url(#8add37364f)"><path fill="#87ceeb" d="M 203.28125 233.421875 C 203.28125 235.382812 204.871094 236.976562 206.832031 236.976562 C 208.792969 236.976562 210.382812 235.382812 210.382812 233.421875 C 210.382812 231.460938 208.792969 229.871094 206.832031 229.871094 C 204.871094 229.871094 203.28125 231.460938 203.28125 233.421875 Z M 206.832031 241.710938 C 202.253906 241.710938 198.542969 238 198.542969 233.421875 C 198.542969 228.847656 202.253906 225.136719 206.832031 225.136719 C 211.40625 225.136719 215.117188 228.847656 215.117188 233.421875 C 215.117188 238 211.40625 241.710938 206.832031 241.710938 Z M 206.832031 241.710938 " fill-opacity="1" fill-rule="evenodd"/></g><g fill="#87ceeb" fill-opacity="1"><g transform="translate(66.078791, 205.669849)"><g><path d="M 15.15625 -28 C 17.132812 -28 18.863281 -27.625 20.34375 -26.875 C 21.820312 -26.132812 23.039062 -25.101562 24 -23.78125 C 24.957031 -22.457031 25.671875 -20.957031 26.140625 -19.28125 C 26.609375 -17.601562 26.84375 -15.84375 26.84375 -14 C 26.84375 -11.4375 26.421875 -9.09375 25.578125 -6.96875 C 24.734375 -4.851562 23.453125 -3.160156 21.734375 -1.890625 C 20.015625 -0.628906 17.820312 0 15.15625 0 L 4.953125 0 C 4.640625 0 4.363281 -0.117188 4.125 -0.359375 C 3.882812 -0.597656 3.765625 -0.878906 3.765625 -1.203125 L 3.765625 -26.796875 C 3.765625 -27.117188 3.882812 -27.398438 4.125 -27.640625 C 4.363281 -27.878906 4.640625 -28 4.953125 -28 Z M 14.765625 -2.359375 C 17.023438 -2.359375 18.847656 -2.878906 20.234375 -3.921875 C 21.617188 -4.960938 22.640625 -6.367188 23.296875 -8.140625 C 23.953125 -9.910156 24.28125 -11.863281 24.28125 -14 C 24.28125 -15.539062 24.097656 -17.007812 23.734375 -18.40625 C 23.378906 -19.8125 22.820312 -21.054688 22.0625 -22.140625 C 21.300781 -23.222656 20.3125 -24.078125 19.09375 -24.703125 C 17.882812 -25.328125 16.441406 -25.640625 14.765625 -25.640625 L 6 -25.640625 L 6.28125 -26 L 6.28125 -1.953125 L 6.046875 -2.359375 Z M 14.765625 -2.359375 "/></g></g></g><g fill="#87ceeb" fill-opacity="1"><g transform="translate(94.835937, 205.669849)"><g><path d="M 28.71875 -14 C 28.71875 -11.894531 28.390625 -9.96875 27.734375 -8.21875 C 27.085938 -6.46875 26.160156 -4.945312 24.953125 -3.65625 C 23.753906 -2.363281 22.332031 -1.363281 20.6875 -0.65625 C 19.050781 0.0507812 17.257812 0.40625 15.3125 0.40625 C 13.375 0.40625 11.582031 0.0507812 9.9375 -0.65625 C 8.300781 -1.363281 6.878906 -2.363281 5.671875 -3.65625 C 4.472656 -4.945312 3.546875 -6.46875 2.890625 -8.21875 C 2.242188 -9.96875 1.921875 -11.894531 1.921875 -14 C 1.921875 -16.101562 2.242188 -18.03125 2.890625 -19.78125 C 3.546875 -21.53125 4.472656 -23.050781 5.671875 -24.34375 C 6.878906 -25.632812 8.300781 -26.632812 9.9375 -27.34375 C 11.582031 -28.050781 13.375 -28.40625 15.3125 -28.40625 C 17.257812 -28.40625 19.050781 -28.050781 20.6875 -27.34375 C 22.332031 -26.632812 23.753906 -25.632812 24.953125 -24.34375 C 26.160156 -23.050781 27.085938 -21.53125 27.734375 -19.78125 C 28.390625 -18.03125 28.71875 -16.101562 28.71875 -14 Z M 26.15625 -14 C 26.15625 -16.375 25.695312 -18.457031 24.78125 -20.25 C 23.863281 -22.050781 22.585938 -23.457031 20.953125 -24.46875 C 19.328125 -25.488281 17.445312 -26 15.3125 -26 C 13.207031 -26 11.332031 -25.488281 9.6875 -24.46875 C 8.050781 -23.457031 6.773438 -22.050781 5.859375 -20.25 C 4.941406 -18.457031 4.484375 -16.375 4.484375 -14 C 4.484375 -11.625 4.941406 -9.535156 5.859375 -7.734375 C 6.773438 -5.941406 8.050781 -4.535156 9.6875 -3.515625 C 11.332031 -2.503906 13.207031 -2 15.3125 -2 C 17.445312 -2 19.328125 -2.503906 20.953125 -3.515625 C 22.585938 -4.535156 23.863281 -5.941406 24.78125 -7.734375 C 25.695312 -9.535156 26.15625 -11.625 26.15625 -14 Z M 26.15625 -14 "/></g></g></g><g fill="#87ceeb" fill-opacity="1"><g transform="translate(125.472891, 205.669849)"><g><path d="M 24.234375 -28 C 24.585938 -28 24.863281 -27.890625 25.0625 -27.671875 C 25.257812 -27.460938 25.359375 -27.195312 25.359375 -26.875 L 25.359375 -1.28125 C 25.359375 -0.882812 25.226562 -0.570312 24.96875 -0.34375 C 24.71875 -0.113281 24.4375 0 24.125 0 C 23.957031 0 23.78125 -0.03125 23.59375 -0.09375 C 23.40625 -0.164062 23.257812 -0.269531 23.15625 -0.40625 L 5.3125 -24.4375 L 6 -24.796875 L 6 -1.078125 C 6 -0.785156 5.890625 -0.53125 5.671875 -0.3125 C 5.460938 -0.101562 5.195312 0 4.875 0 C 4.53125 0 4.257812 -0.101562 4.0625 -0.3125 C 3.863281 -0.53125 3.765625 -0.785156 3.765625 -1.078125 L 3.765625 -26.796875 C 3.765625 -27.203125 3.882812 -27.503906 4.125 -27.703125 C 4.363281 -27.898438 4.628906 -28 4.921875 -28 C 5.078125 -28 5.25 -27.960938 5.4375 -27.890625 C 5.625 -27.828125 5.769531 -27.71875 5.875 -27.5625 L 23.515625 -3.796875 L 23.125 -3.078125 L 23.125 -26.875 C 23.125 -27.195312 23.234375 -27.460938 23.453125 -27.671875 C 23.679688 -27.890625 23.941406 -28 24.234375 -28 Z M 24.234375 -28 "/></g></g></g><g fill="#87ceeb" fill-opacity="1"><g transform="translate(154.59, 205.669849)"><g/></g></g><g fill="#87ceeb" fill-opacity="1"><g transform="translate(165.50891, 205.669849)"><g><path d="M 4.953125 -28 C 5.140625 -28 5.332031 -27.957031 5.53125 -27.875 C 5.738281 -27.800781 5.910156 -27.671875 6.046875 -27.484375 L 17.078125 -10.921875 L 16 -10.953125 L 27.078125 -27.484375 C 27.367188 -27.878906 27.726562 -28.050781 28.15625 -28 C 28.476562 -28 28.75 -27.882812 28.96875 -27.65625 C 29.195312 -27.425781 29.3125 -27.140625 29.3125 -26.796875 L 29.3125 -1.203125 C 29.3125 -0.878906 29.191406 -0.597656 28.953125 -0.359375 C 28.710938 -0.117188 28.421875 0 28.078125 0 C 27.703125 0 27.394531 -0.117188 27.15625 -0.359375 C 26.914062 -0.597656 26.796875 -0.878906 26.796875 -1.203125 L 26.796875 -24.359375 L 27.515625 -24.28125 L 17.40625 -8.953125 C 17.320312 -8.796875 17.195312 -8.671875 17.03125 -8.578125 C 16.875 -8.484375 16.691406 -8.453125 16.484375 -8.484375 C 16.296875 -8.453125 16.113281 -8.484375 15.9375 -8.578125 C 15.769531 -8.671875 15.628906 -8.796875 15.515625 -8.953125 L 5.359375 -24.4375 L 6.125 -24.953125 L 6.125 -1.203125 C 6.125 -0.878906 6.007812 -0.597656 5.78125 -0.359375 C 5.550781 -0.117188 5.265625 0 4.921875 0 C 4.578125 0 4.296875 -0.117188 4.078125 -0.359375 C 3.867188 -0.597656 3.765625 -0.878906 3.765625 -1.203125 L 3.765625 -26.796875 C 3.765625 -27.117188 3.875 -27.398438 4.09375 -27.640625 C 4.320312 -27.878906 4.609375 -28 4.953125 -28 Z M 4.953125 -28 "/></g></g></g><g fill="#87ceeb" fill-opacity="1"><g transform="translate(198.585618, 205.669849)"><g><path d="M 6.28125 -1.234375 C 6.25 -0.890625 6.109375 -0.597656 5.859375 -0.359375 C 5.609375 -0.117188 5.320312 0 5 0 C 4.625 0 4.320312 -0.117188 4.09375 -0.359375 C 3.875 -0.597656 3.765625 -0.890625 3.765625 -1.234375 L 3.765625 -26.765625 C 3.765625 -27.109375 3.882812 -27.398438 4.125 -27.640625 C 4.363281 -27.878906 4.671875 -28 5.046875 -28 C 5.359375 -28 5.640625 -27.878906 5.890625 -27.640625 C 6.148438 -27.398438 6.28125 -27.109375 6.28125 -26.765625 Z M 6.28125 -1.234375 "/></g></g></g><g fill="#87ceeb" fill-opacity="1"><g transform="translate(208.58463, 205.669849)"><g><path d="M 16.3125 0.40625 C 14.257812 0.40625 12.351562 0.046875 10.59375 -0.671875 C 8.832031 -1.398438 7.304688 -2.410156 6.015625 -3.703125 C 4.722656 -4.992188 3.71875 -6.519531 3 -8.28125 C 2.28125 -10.039062 1.921875 -11.945312 1.921875 -14 C 1.921875 -16.050781 2.28125 -17.957031 3 -19.71875 C 3.71875 -21.476562 4.722656 -23.003906 6.015625 -24.296875 C 7.304688 -25.585938 8.832031 -26.59375 10.59375 -27.3125 C 12.351562 -28.039062 14.257812 -28.40625 16.3125 -28.40625 C 17.726562 -28.40625 19.097656 -28.238281 20.421875 -27.90625 C 21.742188 -27.570312 22.921875 -27.070312 23.953125 -26.40625 C 24.140625 -26.269531 24.28125 -26.113281 24.375 -25.9375 C 24.46875 -25.769531 24.515625 -25.59375 24.515625 -25.40625 C 24.515625 -25.03125 24.394531 -24.726562 24.15625 -24.5 C 23.914062 -24.269531 23.664062 -24.15625 23.40625 -24.15625 C 23.269531 -24.15625 23.140625 -24.175781 23.015625 -24.21875 C 22.898438 -24.257812 22.789062 -24.304688 22.6875 -24.359375 C 21.769531 -24.867188 20.78125 -25.269531 19.71875 -25.5625 C 18.65625 -25.851562 17.519531 -26 16.3125 -26 C 14.019531 -26 11.976562 -25.476562 10.1875 -24.4375 C 8.40625 -23.394531 7.007812 -21.96875 6 -20.15625 C 4.988281 -18.34375 4.484375 -16.289062 4.484375 -14 C 4.484375 -11.707031 4.988281 -9.65625 6 -7.84375 C 7.007812 -6.03125 8.40625 -4.601562 10.1875 -3.5625 C 11.976562 -2.519531 14.019531 -2 16.3125 -2 C 17.519531 -2 18.726562 -2.171875 19.9375 -2.515625 C 21.15625 -2.867188 22.203125 -3.335938 23.078125 -3.921875 L 22.875 -3.078125 L 22.875 -12.28125 L 23.484375 -11.71875 L 16.5625 -11.71875 C 16.21875 -11.71875 15.921875 -11.835938 15.671875 -12.078125 C 15.429688 -12.316406 15.3125 -12.597656 15.3125 -12.921875 C 15.3125 -13.296875 15.429688 -13.585938 15.671875 -13.796875 C 15.921875 -14.015625 16.21875 -14.125 16.5625 -14.125 L 24.203125 -14.125 C 24.546875 -14.125 24.832031 -14.007812 25.0625 -13.78125 C 25.289062 -13.550781 25.40625 -13.265625 25.40625 -12.921875 L 25.40625 -3.28125 C 25.40625 -3.0625 25.347656 -2.859375 25.234375 -2.671875 C 25.128906 -2.492188 24.984375 -2.335938 24.796875 -2.203125 C 23.628906 -1.398438 22.316406 -0.765625 20.859375 -0.296875 C 19.410156 0.171875 17.894531 0.40625 16.3125 0.40625 Z M 16.3125 0.40625 "/></g></g></g><g fill="#87ceeb" fill-opacity="1"><g transform="translate(236.381869, 205.669849)"><g><path d="M 23.5625 -28 C 23.9375 -28 24.226562 -27.882812 24.4375 -27.65625 C 24.65625 -27.425781 24.765625 -27.140625 24.765625 -26.796875 L 24.765625 -10.234375 C 24.765625 -8.265625 24.296875 -6.476562 23.359375 -4.875 C 22.421875 -3.28125 21.164062 -2.007812 19.59375 -1.0625 C 18.019531 -0.113281 16.25 0.359375 14.28125 0.359375 C 12.300781 0.359375 10.519531 -0.113281 8.9375 -1.0625 C 7.351562 -2.007812 6.09375 -3.28125 5.15625 -4.875 C 4.226562 -6.476562 3.765625 -8.265625 3.765625 -10.234375 L 3.765625 -26.796875 C 3.765625 -27.140625 3.875 -27.425781 4.09375 -27.65625 C 4.320312 -27.882812 4.640625 -28 5.046875 -28 C 5.359375 -28 5.632812 -27.882812 5.875 -27.65625 C 6.113281 -27.425781 6.234375 -27.140625 6.234375 -26.796875 L 6.234375 -10.234375 C 6.234375 -8.691406 6.597656 -7.304688 7.328125 -6.078125 C 8.066406 -4.847656 9.050781 -3.867188 10.28125 -3.140625 C 11.507812 -2.410156 12.84375 -2.046875 14.28125 -2.046875 C 15.769531 -2.046875 17.128906 -2.410156 18.359375 -3.140625 C 19.585938 -3.867188 20.566406 -4.847656 21.296875 -6.078125 C 22.035156 -7.304688 22.40625 -8.691406 22.40625 -10.234375 L 22.40625 -26.796875 C 22.40625 -27.140625 22.507812 -27.425781 22.71875 -27.65625 C 22.9375 -27.882812 23.21875 -28 23.5625 -28 Z M 23.5625 -28 "/></g></g></g><g fill="#87ceeb" fill-opacity="1"><g transform="translate(264.899044, 205.669849)"><g><path d="M 4.953125 -28 L 19.640625 -28 C 19.960938 -28 20.242188 -27.882812 20.484375 -27.65625 C 20.722656 -27.425781 20.84375 -27.140625 20.84375 -26.796875 C 20.84375 -26.453125 20.722656 -26.171875 20.484375 -25.953125 C 20.242188 -25.742188 19.960938 -25.640625 19.640625 -25.640625 L 5.875 -25.640625 L 6.28125 -26.3125 L 6.28125 -15.078125 L 5.84375 -15.59375 L 17.84375 -15.59375 C 18.15625 -15.59375 18.429688 -15.472656 18.671875 -15.234375 C 18.921875 -14.992188 19.046875 -14.71875 19.046875 -14.40625 C 19.046875 -14.050781 18.921875 -13.765625 18.671875 -13.546875 C 18.429688 -13.335938 18.15625 -13.234375 17.84375 -13.234375 L 5.921875 -13.234375 L 6.28125 -13.640625 L 6.28125 -2.125 L 6.078125 -2.359375 L 19.640625 -2.359375 C 19.960938 -2.359375 20.242188 -2.238281 20.484375 -2 C 20.722656 -1.757812 20.84375 -1.476562 20.84375 -1.15625 C 20.84375 -0.8125 20.722656 -0.53125 20.484375 -0.3125 C 20.242188 -0.101562 19.960938 0 19.640625 0 L 4.953125 0 C 4.640625 0 4.363281 -0.117188 4.125 -0.359375 C 3.882812 -0.597656 3.765625 -0.878906 3.765625 -1.203125 L 3.765625 -26.796875 C 3.765625 -27.117188 3.882812 -27.398438 4.125 -27.640625 C 4.363281 -27.878906 4.640625 -28 4.953125 -28 Z M 4.953125 -28 "/></g></g></g><g fill="#87ceeb" fill-opacity="1"><g transform="translate(287.616801, 205.669849)"><g><path d="M 19.234375 -2.359375 C 19.554688 -2.359375 19.835938 -2.242188 20.078125 -2.015625 C 20.316406 -1.796875 20.4375 -1.523438 20.4375 -1.203125 C 20.4375 -0.859375 20.316406 -0.570312 20.078125 -0.34375 C 19.835938 -0.113281 19.554688 0 19.234375 0 L 4.953125 0 C 4.609375 0 4.320312 -0.117188 4.09375 -0.359375 C 3.875 -0.597656 3.765625 -0.878906 3.765625 -1.203125 L 3.765625 -26.796875 C 3.765625 -27.117188 3.882812 -27.398438 4.125 -27.640625 C 4.363281 -27.878906 4.671875 -28 5.046875 -28 C 5.359375 -28 5.640625 -27.878906 5.890625 -27.640625 C 6.148438 -27.398438 6.28125 -27.117188 6.28125 -26.796875 L 6.28125 -1.6875 L 5.515625 -2.359375 Z M 19.234375 -2.359375 "/></g></g></g><g fill="#003366" fill-opacity="1"><g transform="translate(80.948513, 133.910075)"><g><path d="M 0.21875 -0.390625 L -9.1875 -11.171875 L -7.84375 -13.59375 L 6.28125 -11.421875 L 5.03125 -9.125 L 1.796875 -9.703125 L -0.734375 -5.09375 L 1.453125 -2.640625 Z M -2.09375 -6.609375 L -0.21875 -10.03125 L -6.078125 -11.015625 Z M -2.09375 -6.609375 "/></g></g></g><g fill="#003366" fill-opacity="1"><g transform="translate(93.129451, 113.944632)"><g><path d="M 0.84375 -1.015625 L -9.484375 -9.625 L -6.3125 -13.4375 C -5.625 -14.257812 -4.914062 -14.820312 -4.1875 -15.125 C -3.457031 -15.4375 -2.738281 -15.523438 -2.03125 -15.390625 C -1.320312 -15.265625 -0.671875 -14.953125 -0.078125 -14.453125 C 0.492188 -13.972656 0.910156 -13.40625 1.171875 -12.75 C 1.429688 -12.101562 1.476562 -11.382812 1.3125 -10.59375 C 1.15625 -9.8125 0.722656 -9 0.015625 -8.15625 L -1.59375 -6.21875 L 2.40625 -2.890625 Z M -3.125 -7.5 L -1.609375 -9.3125 C -1.066406 -9.96875 -0.816406 -10.5625 -0.859375 -11.09375 C -0.898438 -11.625 -1.175781 -12.101562 -1.6875 -12.53125 C -2.195312 -12.957031 -2.71875 -13.144531 -3.25 -13.09375 C -3.78125 -13.039062 -4.316406 -12.6875 -4.859375 -12.03125 L -6.375 -10.21875 Z M -3.125 -7.5 "/></g></g></g><g fill="#003366" fill-opacity="1"><g transform="translate(107.608017, 97.924219)"><g><path d="M 0.34375 -0.28125 L -4.34375 -13.796875 L -2.203125 -15.546875 L 10.09375 -8.234375 L 8.078125 -6.59375 L 5.28125 -8.328125 L 1.21875 -5 L 2.34375 -1.90625 Z M 0.515625 -6.921875 L 3.546875 -9.390625 L -1.515625 -12.484375 Z M 0.515625 -6.921875 "/></g></g></g><g fill="#003366" fill-opacity="1"><g transform="translate(126.354775, 83.951436)"><g><path d="M 1.15625 -0.625 L -5.1875 -12.46875 L -0.84375 -14.78125 C 0.101562 -15.300781 0.96875 -15.5625 1.75 -15.5625 C 2.539062 -15.570312 3.234375 -15.382812 3.828125 -15 C 4.429688 -14.613281 4.910156 -14.09375 5.265625 -13.4375 C 5.648438 -12.707031 5.8125 -11.941406 5.75 -11.140625 C 5.695312 -10.347656 5.34375 -9.597656 4.6875 -8.890625 L 9.8125 -5.25 L 7.3125 -3.921875 L 2.609375 -7.40625 L 0.8125 -6.453125 L 3.3125 -1.78125 Z M -0.046875 -8.046875 L 2.015625 -9.140625 C 2.722656 -9.523438 3.15625 -9.984375 3.3125 -10.515625 C 3.46875 -11.046875 3.390625 -11.601562 3.078125 -12.1875 C 2.785156 -12.738281 2.378906 -13.097656 1.859375 -13.265625 C 1.335938 -13.429688 0.707031 -13.3125 -0.03125 -12.90625 L -2.0625 -11.828125 Z M -0.046875 -8.046875 "/></g></g></g><g fill="#003366" fill-opacity="1"><g transform="translate(146.115731, 74.432319)"><g><path d="M 4.234375 -1.34375 L 0.765625 -12.265625 L -2.984375 -11.078125 L -3.59375 -12.96875 L 6.234375 -16.09375 L 6.84375 -14.203125 L 3.09375 -13.015625 L 6.5625 -2.09375 Z M 4.234375 -1.34375 "/></g></g></g><g fill="#003366" fill-opacity="1"><g transform="translate(166.648121, 68.788745)"><g><path d="M 0.4375 -0.046875 L 3.75 -13.96875 L 6.484375 -14.296875 L 12.9375 -1.53125 L 10.34375 -1.21875 L 8.9375 -4.1875 L 3.71875 -3.578125 L 3 -0.359375 Z M 4.15625 -5.5625 L 8.03125 -6.015625 L 5.421875 -11.34375 Z M 4.15625 -5.5625 "/></g></g></g><g fill="#003366" fill-opacity="1"><g transform="translate(189.863406, 66.908037)"><g><path d="M 1.3125 0.125 L 2.59375 -13.25 L 5.484375 -12.96875 L 8.9375 -4.09375 L 13.953125 -12.171875 L 16.859375 -11.890625 L 15.578125 1.484375 L 13.125 1.25 L 14 -7.984375 L 9.59375 -1.015625 L 7.671875 -1.1875 L 4.625 -8.875 L 3.75 0.359375 Z M 1.3125 0.125 "/></g></g></g><g fill="#003366" fill-opacity="1"><g transform="translate(216.392478, 70.742429)"><g><path d="M 1.25 0.390625 L 5.203125 -12.453125 L 13.578125 -9.875 L 13 -8 L 6.96875 -9.859375 L 5.875 -6.328125 L 11.359375 -4.640625 L 10.796875 -2.796875 L 5.3125 -4.484375 L 4.171875 -0.78125 L 10.203125 1.078125 L 9.625 2.96875 Z M 1.25 0.390625 "/></g></g></g><g fill="#003366" fill-opacity="1"><g transform="translate(236.250367, 77.705332)"><g><path d="M 1.15625 0.609375 L 7.46875 -11.25 L 9.640625 -10.09375 L 10.75 1.234375 L 15.203125 -7.125 L 17.390625 -5.96875 L 11.078125 5.890625 L 8.890625 4.734375 L 7.765625 -6.578125 L 3.328125 1.765625 Z M 1.15625 0.609375 "/></g></g></g><g fill="#003366" fill-opacity="1"><g transform="translate(256.70861, 89.804817)"><g><path d="M 3.453125 2.796875 L 10.671875 -6.109375 L 7.625 -8.578125 L 8.859375 -10.109375 L 16.875 -3.625 L 15.640625 -2.09375 L 12.578125 -4.5625 L 5.359375 4.34375 Z M 3.453125 2.796875 "/></g></g></g><g fill="#003366" fill-opacity="1"><g transform="translate(272.724829, 103.788282)"><g><path d="M 4.671875 6.015625 C 3.816406 4.972656 3.289062 3.875 3.09375 2.71875 C 2.90625 1.570312 3.03125 0.445312 3.46875 -0.65625 C 3.914062 -1.769531 4.664062 -2.765625 5.71875 -3.640625 C 6.769531 -4.515625 7.878906 -5.0625 9.046875 -5.28125 C 10.210938 -5.507812 11.34375 -5.425781 12.4375 -5.03125 C 13.539062 -4.632812 14.519531 -3.914062 15.375 -2.875 C 16.226562 -1.851562 16.75 -0.769531 16.9375 0.375 C 17.132812 1.53125 17.007812 2.65625 16.5625 3.75 C 16.125 4.851562 15.378906 5.84375 14.328125 6.71875 C 13.273438 7.59375 12.164062 8.144531 11 8.375 C 9.832031 8.613281 8.695312 8.535156 7.59375 8.140625 C 6.5 7.742188 5.523438 7.035156 4.671875 6.015625 Z M 6.390625 4.59375 C 7.210938 5.570312 8.1875 6.082031 9.3125 6.125 C 10.445312 6.175781 11.582031 5.734375 12.71875 4.796875 C 13.84375 3.859375 14.488281 2.820312 14.65625 1.6875 C 14.832031 0.5625 14.507812 -0.488281 13.6875 -1.46875 C 12.875 -2.457031 11.890625 -2.976562 10.734375 -3.03125 C 9.585938 -3.082031 8.453125 -2.640625 7.328125 -1.703125 C 6.191406 -0.765625 5.546875 0.269531 5.390625 1.40625 C 5.242188 2.539062 5.578125 3.601562 6.390625 4.59375 Z M 6.390625 4.59375 "/></g></g></g><g fill="#003366" fill-opacity="1"><g transform="translate(287.83337, 123.802204)"><g><path d="M 2.59375 5.296875 C 2.132812 4.429688 1.875 3.582031 1.8125 2.75 C 1.75 1.925781 1.890625 1.171875 2.234375 0.484375 C 2.585938 -0.191406 3.160156 -0.75 3.953125 -1.1875 L 5.1875 1.09375 C 4.644531 1.394531 4.285156 1.835938 4.109375 2.421875 C 3.941406 3.003906 4.039062 3.628906 4.40625 4.296875 C 4.71875 4.867188 5.097656 5.25 5.546875 5.4375 C 6.003906 5.625 6.460938 5.59375 6.921875 5.34375 C 7.398438 5.082031 7.691406 4.726562 7.796875 4.28125 C 7.910156 3.84375 7.921875 3.328125 7.828125 2.734375 C 7.734375 2.148438 7.628906 1.53125 7.515625 0.875 C 7.335938 -0.207031 7.367188 -1.125 7.609375 -1.875 C 7.847656 -2.625 8.375 -3.21875 9.1875 -3.65625 C 9.882812 -4.039062 10.578125 -4.195312 11.265625 -4.125 C 11.953125 -4.0625 12.59375 -3.800781 13.1875 -3.34375 C 13.789062 -2.894531 14.304688 -2.285156 14.734375 -1.515625 C 15.148438 -0.722656 15.378906 0.046875 15.421875 0.796875 C 15.472656 1.546875 15.332031 2.226562 15 2.84375 C 14.675781 3.46875 14.179688 3.984375 13.515625 4.390625 L 12.25 2.0625 C 12.65625 1.832031 12.9375 1.472656 13.09375 0.984375 C 13.25 0.503906 13.175781 -0.0078125 12.875 -0.5625 C 12.632812 -1.050781 12.304688 -1.390625 11.890625 -1.578125 C 11.472656 -1.765625 11.03125 -1.734375 10.5625 -1.484375 C 10.164062 -1.273438 9.921875 -0.976562 9.828125 -0.59375 C 9.734375 -0.21875 9.71875 0.222656 9.78125 0.734375 C 9.851562 1.253906 9.957031 1.832031 10.09375 2.46875 C 10.195312 3.164062 10.242188 3.828125 10.234375 4.453125 C 10.234375 5.085938 10.085938 5.671875 9.796875 6.203125 C 9.515625 6.734375 9.019531 7.191406 8.3125 7.578125 C 7.695312 7.910156 7.035156 8.0625 6.328125 8.03125 C 5.628906 8.007812 4.953125 7.773438 4.296875 7.328125 C 3.648438 6.878906 3.082031 6.203125 2.59375 5.296875 Z M 2.59375 5.296875 "/></g></g></g><g fill="#003366" fill-opacity="1"><g transform="translate(77.924217, 265.611256)"><g><path d="M 0.671875 0.875 L 9.71875 -6.109375 L 12.53125 -2.46875 C 13.257812 -1.53125 13.597656 -0.644531 13.546875 0.1875 C 13.492188 1.019531 13.125 1.695312 12.4375 2.21875 C 11.863281 2.65625 11.289062 2.851562 10.71875 2.8125 C 10.144531 2.78125 9.625 2.585938 9.15625 2.234375 C 9.457031 2.828125 9.53125 3.453125 9.375 4.109375 C 9.226562 4.765625 8.882812 5.300781 8.34375 5.71875 C 7.625 6.269531 6.832031 6.460938 5.96875 6.296875 C 5.101562 6.140625 4.304688 5.585938 3.578125 4.640625 Z M 7.203125 -1.515625 L 8.546875 0.21875 C 8.898438 0.675781 9.28125 0.945312 9.6875 1.03125 C 10.101562 1.125 10.507812 1.015625 10.90625 0.703125 C 11.28125 0.410156 11.484375 0.0546875 11.515625 -0.359375 C 11.546875 -0.773438 11.375 -1.222656 11 -1.703125 L 9.671875 -3.421875 Z M 3.296875 1.484375 L 4.71875 3.328125 C 5.101562 3.828125 5.515625 4.125 5.953125 4.21875 C 6.390625 4.320312 6.8125 4.210938 7.21875 3.890625 C 7.644531 3.566406 7.867188 3.164062 7.890625 2.6875 C 7.921875 2.21875 7.75 1.742188 7.375 1.265625 L 5.96875 -0.5625 Z M 3.296875 1.484375 "/></g></g></g><g fill="#003366" fill-opacity="1"><g transform="translate(91.031221, 281.409236)"><g><path d="M 4.59375 4.5625 C 3.75 3.78125 3.1875 2.914062 2.90625 1.96875 C 2.625 1.019531 2.609375 0.0546875 2.859375 -0.921875 C 3.109375 -1.910156 3.632812 -2.832031 4.4375 -3.6875 C 5.226562 -4.53125 6.101562 -5.109375 7.0625 -5.421875 C 8.019531 -5.742188 8.984375 -5.796875 9.953125 -5.578125 C 10.921875 -5.367188 11.828125 -4.875 12.671875 -4.09375 C 13.492188 -3.320312 14.046875 -2.457031 14.328125 -1.5 C 14.617188 -0.550781 14.632812 0.410156 14.375 1.390625 C 14.125 2.367188 13.601562 3.28125 12.8125 4.125 C 12.007812 4.976562 11.128906 5.566406 10.171875 5.890625 C 9.222656 6.210938 8.257812 6.265625 7.28125 6.046875 C 6.3125 5.828125 5.414062 5.332031 4.59375 4.5625 Z M 5.890625 3.171875 C 6.679688 3.910156 7.554688 4.238281 8.515625 4.15625 C 9.484375 4.082031 10.394531 3.585938 11.25 2.671875 C 12.101562 1.765625 12.535156 0.828125 12.546875 -0.140625 C 12.566406 -1.117188 12.179688 -1.976562 11.390625 -2.71875 C 10.585938 -3.457031 9.703125 -3.785156 8.734375 -3.703125 C 7.773438 -3.617188 6.867188 -3.125 6.015625 -2.21875 C 5.160156 -1.300781 4.722656 -0.359375 4.703125 0.609375 C 4.691406 1.578125 5.085938 2.429688 5.890625 3.171875 Z M 5.890625 3.171875 "/></g></g></g><g fill="#003366" fill-opacity="1"><g transform="translate(108.573378, 296.509962)"><g><path d="M 4.484375 3.21875 C 3.796875 2.757812 3.257812 2.203125 2.875 1.546875 C 2.488281 0.890625 2.316406 0.171875 2.359375 -0.609375 C 2.410156 -1.390625 2.722656 -2.207031 3.296875 -3.0625 L 7.171875 -8.953125 L 8.921875 -7.796875 L 5.03125 -1.90625 C 4.539062 -1.15625 4.351562 -0.484375 4.46875 0.109375 C 4.582031 0.703125 4.957031 1.207031 5.59375 1.625 C 6.21875 2.039062 6.832031 2.191406 7.4375 2.078125 C 8.039062 1.960938 8.585938 1.53125 9.078125 0.78125 L 12.96875 -5.109375 L 14.71875 -3.953125 L 10.84375 1.9375 C 10.269531 2.789062 9.617188 3.378906 8.890625 3.703125 C 8.171875 4.035156 7.429688 4.15625 6.671875 4.0625 C 5.921875 3.96875 5.191406 3.6875 4.484375 3.21875 Z M 4.484375 3.21875 "/></g></g></g><g fill="#003366" fill-opacity="1"><g transform="translate(126.771225, 307.549589)"><g><path d="M 3.421875 1.578125 L 7.5 -7.28125 L 4.46875 -8.671875 L 5.171875 -10.1875 L 13.140625 -6.53125 L 12.4375 -5.015625 L 9.40625 -6.40625 L 5.328125 2.453125 Z M 3.421875 1.578125 "/></g></g></g><g fill="#003366" fill-opacity="1"><g transform="translate(144.965786, 315.034691)"><g><path d="M 1.0625 0.328125 L 4.484375 -10.5625 L 6.484375 -9.9375 L 3.0625 0.953125 Z M 1.0625 0.328125 "/></g></g></g><g fill="#003366" fill-opacity="1"><g transform="translate(158.84037, 318.964027)"><g><path d="M 6.34375 1.265625 C 5.21875 1.078125 4.273438 0.660156 3.515625 0.015625 C 2.753906 -0.617188 2.207031 -1.410156 1.875 -2.359375 C 1.539062 -3.316406 1.46875 -4.367188 1.65625 -5.515625 C 1.84375 -6.671875 2.25 -7.644531 2.875 -8.4375 C 3.5 -9.226562 4.273438 -9.800781 5.203125 -10.15625 C 6.128906 -10.507812 7.15625 -10.59375 8.28125 -10.40625 C 9.394531 -10.21875 10.335938 -9.804688 11.109375 -9.171875 C 11.878906 -8.535156 12.425781 -7.742188 12.75 -6.796875 C 13.070312 -5.847656 13.140625 -4.796875 12.953125 -3.640625 C 12.773438 -2.554688 12.40625 -1.628906 11.84375 -0.859375 C 11.289062 -0.0976562 10.601562 0.472656 9.78125 0.859375 L 11.90625 4.078125 L 9.34375 3.65625 L 7.921875 1.328125 C 7.410156 1.367188 6.882812 1.347656 6.34375 1.265625 Z M 6.65625 -0.609375 C 7.726562 -0.429688 8.640625 -0.644531 9.390625 -1.25 C 10.148438 -1.851562 10.632812 -2.769531 10.84375 -4 C 11.050781 -5.226562 10.890625 -6.25 10.359375 -7.0625 C 9.835938 -7.882812 9.039062 -8.382812 7.96875 -8.5625 C 6.894531 -8.738281 5.976562 -8.523438 5.21875 -7.921875 C 4.46875 -7.316406 3.988281 -6.398438 3.78125 -5.171875 C 3.570312 -3.941406 3.726562 -2.914062 4.25 -2.09375 C 4.78125 -1.28125 5.582031 -0.785156 6.65625 -0.609375 Z M 6.65625 -0.609375 "/></g></g></g><g fill="#003366" fill-opacity="1"><g transform="translate(181.757661, 321.839002)"><g><path d="M 5.515625 0.203125 C 4.679688 0.203125 3.925781 0.0351562 3.25 -0.296875 C 2.570312 -0.628906 2.035156 -1.132812 1.640625 -1.8125 C 1.242188 -2.488281 1.046875 -3.34375 1.046875 -4.375 L 1.03125 -11.421875 L 3.125 -11.421875 L 3.140625 -4.359375 C 3.140625 -3.460938 3.351562 -2.796875 3.78125 -2.359375 C 4.207031 -1.929688 4.800781 -1.71875 5.5625 -1.71875 C 6.3125 -1.726562 6.90625 -1.945312 7.34375 -2.375 C 7.78125 -2.8125 8 -3.476562 8 -4.375 L 7.984375 -11.4375 L 10.078125 -11.4375 L 10.09375 -4.390625 C 10.09375 -3.359375 9.882812 -2.503906 9.46875 -1.828125 C 9.050781 -1.148438 8.5 -0.644531 7.8125 -0.3125 C 7.125 0.0195312 6.359375 0.191406 5.515625 0.203125 Z M 5.515625 0.203125 "/></g></g></g><g fill="#003366" fill-opacity="1"><g transform="translate(203.020342, 320.974121)"><g><path d="M 1.09375 -0.171875 L -0.65625 -11.453125 L 6.734375 -12.59375 L 6.984375 -10.953125 L 1.671875 -10.125 L 2.15625 -7.015625 L 6.96875 -7.765625 L 7.21875 -6.15625 L 2.40625 -5.40625 L 2.90625 -2.15625 L 8.21875 -2.984375 L 8.484375 -1.3125 Z M 1.09375 -0.171875 "/></g></g></g><g fill="#003366" fill-opacity="1"><g transform="translate(222.203627, 317.235454)"><g><path d="M -0.296875 -4.25 L -0.625 -5.375 L 5.5625 -7.265625 L 5.890625 -6.140625 Z M -0.296875 -4.25 "/></g></g></g><g fill="#003366" fill-opacity="1"><g transform="translate(239.725613, 311.217023)"><g><path d="M 1.09375 -0.515625 L -3.828125 -10.828125 L -2.59375 -11.421875 L 6.859375 -5.78125 L 2.90625 -14.046875 L 4.140625 -14.640625 L 9.0625 -4.328125 L 7.828125 -3.734375 L -1.609375 -9.375 L 2.328125 -1.109375 Z M 1.09375 -0.515625 "/></g></g></g><g fill="#003366" fill-opacity="1"><g transform="translate(258.773483, 301.269205)"><g><path d="M 5.359375 -3.5 C 4.429688 -2.851562 3.476562 -2.492188 2.5 -2.421875 C 1.53125 -2.347656 0.597656 -2.539062 -0.296875 -3 C -1.203125 -3.457031 -1.988281 -4.164062 -2.65625 -5.125 C -3.320312 -6.082031 -3.710938 -7.054688 -3.828125 -8.046875 C -3.953125 -9.046875 -3.8125 -9.988281 -3.40625 -10.875 C -3.007812 -11.769531 -2.347656 -12.539062 -1.421875 -13.1875 C -0.503906 -13.832031 0.441406 -14.191406 1.421875 -14.265625 C 2.398438 -14.347656 3.335938 -14.160156 4.234375 -13.703125 C 5.128906 -13.253906 5.910156 -12.550781 6.578125 -11.59375 C 7.242188 -10.632812 7.640625 -9.65625 7.765625 -8.65625 C 7.890625 -7.65625 7.75 -6.707031 7.34375 -5.8125 C 6.9375 -4.914062 6.273438 -4.144531 5.359375 -3.5 Z M 4.671875 -4.5 C 5.347656 -4.976562 5.835938 -5.550781 6.140625 -6.21875 C 6.441406 -6.894531 6.535156 -7.625 6.421875 -8.40625 C 6.316406 -9.1875 5.984375 -9.976562 5.421875 -10.78125 C 4.859375 -11.582031 4.226562 -12.164062 3.53125 -12.53125 C 2.84375 -12.90625 2.128906 -13.0625 1.390625 -13 C 0.660156 -12.945312 -0.0390625 -12.679688 -0.71875 -12.203125 C -1.414062 -11.722656 -1.914062 -11.144531 -2.21875 -10.46875 C -2.519531 -9.800781 -2.613281 -9.078125 -2.5 -8.296875 C -2.394531 -7.523438 -2.0625 -6.738281 -1.5 -5.9375 C -0.9375 -5.132812 -0.3125 -4.546875 0.375 -4.171875 C 1.070312 -3.796875 1.785156 -3.632812 2.515625 -3.6875 C 3.253906 -3.75 3.972656 -4.019531 4.671875 -4.5 Z M 4.671875 -4.5 "/></g></g></g><g fill="#003366" fill-opacity="1"><g transform="translate(277.015157, 287.319374)"><g><path d="M 2.84375 -2.453125 C 2.101562 -1.742188 1.316406 -1.390625 0.484375 -1.390625 C -0.335938 -1.398438 -1.101562 -1.769531 -1.8125 -2.5 L -0.8125 -3.46875 C -0.414062 -3.0625 0.015625 -2.8125 0.484375 -2.71875 C 0.960938 -2.632812 1.457031 -2.84375 1.96875 -3.34375 C 2.46875 -3.8125 2.679688 -4.273438 2.609375 -4.734375 C 2.546875 -5.191406 2.316406 -5.625 1.921875 -6.03125 L -3.890625 -12.09375 L -2.90625 -13.046875 L 2.90625 -6.984375 C 3.613281 -6.253906 3.957031 -5.488281 3.9375 -4.6875 C 3.925781 -3.894531 3.5625 -3.148438 2.84375 -2.453125 Z M 2.84375 -2.453125 "/></g></g></g><g fill="#003366" fill-opacity="1"><g transform="translate(289.748531, 274.195187)"><g><path d="M 0.296875 -0.390625 L -6.15625 -10.71875 L -5.265625 -11.859375 L 6.34375 -8.1875 L 5.453125 -7.046875 L 2.484375 -8.015625 L -0.5 -4.15625 L 1.171875 -1.515625 Z M -1.125 -5.171875 L 1.359375 -8.375 L -4.34375 -10.21875 Z M -1.125 -5.171875 "/></g></g></g></svg>